<svg xmlns="http://www.w3.org/2000/svg" viewBox="0 0 24 24"><defs><style>.cls-1{fill:#6d7681;fill-rule:evenodd;}.cls-2{fill:none;}</style></defs><g id="Layer_2" data-name="Layer 2"><g id="Layer_1-2" data-name="Layer 1"><path class="cls-1" d="M15.1091,4H8.8907A1.3716,1.3716,0,0,0,7.5,5.3484V18.6517A1.3715,1.3715,0,0,0,8.8907,20h6.2184A1.3715,1.3715,0,0,0,16.5,18.6517V5.3484A1.3717,1.3717,0,0,0,15.1091,4ZM8.8912,19.0484a.4028.4028,0,0,1-.4094-.3949V5.3467A.4024.4024,0,0,1,8.89,4.9516l1.1415,0a.1193.1193,0,0,1,.0424.021l.3218.5194a.5638.5638,0,0,0,.4587.2519h2.2906a.5723.5723,0,0,0,.4585-.2515l.32-.5165a.1165.1165,0,0,1,.04-.0241H15.11a.4024.4024,0,0,1,.4085.3951V18.6535a.4028.4028,0,0,1-.4094.3949Z"/><rect class="cls-2" width="24" height="24"/></g></g></svg>