<?xml version="1.0" encoding="utf-8"?>
<!-- Generator: Adobe Illustrator 24.1.0, SVG Export Plug-In . SVG Version: 6.00 Build 0)  -->
<svg version="1.1" id="Layer_1" xmlns="http://www.w3.org/2000/svg" xmlns:xlink="http://www.w3.org/1999/xlink" x="0px" y="0px"
	 viewBox="0 0 48 48" style="enable-background:new 0 0 48 48;" xml:space="preserve">
<desc>Created with Sketch.</desc>
<g id="Thank-you-page-funnel-Copy">
	<g id="Upsell-view_1_desktop_1" transform="translate(-134.000000, -77.000000)">
		<g id="Group-2" transform="translate(134.000000, 20.000000)">
			<g id="Group-5" transform="translate(0.000000, 57.000000)">
				<g id="Oval">
					<path d="M24,48C10.8,48,0,37.2,0,24S10.8,0,24,0s24,10.8,24,24S37.2,48,24,48z M24,2C11.9,2,2,11.9,2,24s9.9,22,22,22
						s22-9.9,22-22S36.1,2,24,2z"/>
				</g>
				<g id="Path-2">
					<polygon points="21.4,33.4 12.3,24.3 13.7,22.9 21.5,30.6 35.3,18.3 36.7,19.7 					"/>
				</g>
			</g>
		</g>
	</g>
</g>
</svg>
